<?xml version="1.0" encoding="utf-8"?>
<svg xmlns="http://www.w3.org/2000/svg" viewBox="0 0 500 500" xmlns:bx="https://boxy-svg.com">
  <defs>
    <bx:guide x="317.66981016582423" y="34.36683743345209" angle="90"/>
    <bx:guide x="406.5014499880198" y="134.1415384462323" angle="0"/>
    <bx:guide x="324.10688765051975" y="84.57604918072752" angle="0"/>
  </defs>
  <path class="cls-1" d="M 239.92 216.777 L 239.925 216.772 L 239.93 216.777 L 239.92 216.777 Z M 239.925 216.772 L 158.35 132.906 C 142.44 116.549 142.44 90.739 158.35 75.276 L 248.97 168.431 C 249.27 168.729 249.68 168.921 250.12 168.933 C 250.56 168.946 250.97 168.777 251.27 168.496 L 341.68 80.625 C 357.59 96.982 357.59 122.792 341.68 138.255 L 256.2 221.334 C 252.87 224.561 247.48 224.409 244.16 220.996 L 239.99 216.709 L 239.925 216.772 Z M 260.09 283.223 L 260.08 283.233 L 260.07 283.223 L 260.09 283.223 Z M 260.08 283.233 L 341.65 367.094 C 357.56 383.451 357.56 409.261 341.65 424.724 L 251.04 331.569 C 250.74 331.271 250.33 331.079 249.89 331.067 C 249.45 331.055 249.04 331.223 248.74 331.505 L 158.33 419.375 C 142.42 403.018 142.42 377.208 158.33 361.745 L 243.81 278.666 C 247.14 275.44 252.53 275.591 255.85 279.004 L 260.02 283.291 L 260.08 283.233 Z M 221.16 243.33 C 224.48 246.753 224.48 252.143 221.16 255.37 L 135.68 338.449 C 119.77 353.912 93.96 353.187 78.05 336.83 L 168.46 248.96 C 168.75 248.668 168.93 248.273 168.93 247.823 C 168.93 247.373 168.75 246.958 168.46 246.65 L 77.85 153.495 C 93.76 138.032 119.57 138.757 135.48 155.113 L 217.06 238.985 L 216.99 239.053 L 221.16 243.34 L 221.16 243.33 Z M 422.15 346.505 C 406.24 361.968 380.43 361.243 364.52 344.887 L 282.94 261.015 L 283.01 260.947 L 278.84 256.66 C 275.52 253.237 275.52 247.847 278.84 244.62 L 364.32 161.541 C 380.23 146.078 406.04 146.803 421.95 163.16 L 331.54 251.04 C 331.25 251.332 331.07 251.727 331.07 252.177 C 331.07 252.627 331.25 253.042 331.54 253.35 L 422.15 346.505 Z" style="fill: rgb(21, 20, 10); stroke-width: 0px;"/>
</svg>